Coordinates
version=1
nRows=11
nColumns=33
inDegrees=yes

Units are S.I. units (second, meters, Newtons, ...)
Angles are in degrees.

endheader
time	ground_thorax_rot_x	ground_thorax_rot_y	ground_thorax_rot_z	ground_thorax_tx	ground_thorax_ty	ground_thorax_tz	clav_prot_r	clav_elev_r	scapula_abduction_r	scapula_elevation_r	scapula_upward_rot_r	scapula_winging_r	shoulder_elv_r	plane_of_elev_r	axial_rot_r	elbow_flexion_r	pro_sup_r	wrist_flex_r	wrist_dev_r	clav_prot_l	clav_elev_l	scapula_abduction_l	scapula_elevation_l	scapula_upward_rot_l	scapula_winging_l	shoulder_elv_l	plane_of_elev_l	axial_rot_l	elbow_flexion_l	pro_sup_l	wrist_flex_l	wrist_dev_l	
4.1700	-41.196052	0.071014	-7.590260	4.723686	801.649336	6.068620	7.093481	-45.000000	44.999990	-45.000000	-25.113926	-1876.920288	-2985.872477	145.260552	180.000000	1087.669632	47.541490	21.519374	15.752819	14.245816	45.003517	-45.000000	-42.654752	-16.495321	1157.574764	-3894.598234	24.033264	-26.593892	1806.576580	27.869157	10.716786	-18.964670	
4.1800	-41.224182	-0.078216	-7.592862	4.299293	801.400363	5.912680	7.221955	-45.000000	44.999982	-45.000000	-25.368167	-1876.940728	-2985.894795	145.246912	180.000000	1087.590681	47.627591	21.477686	15.722742	14.272547	44.962772	-44.999999	-42.667174	-16.673794	1157.670289	-3894.567778	24.051451	-26.477599	1806.509144	27.958728	10.684679	-19.029221	
4.1900	-41.230582	-0.247993	-7.570163	3.772710	801.145426	5.731300	7.429458	-45.000000	44.999968	-45.000000	-25.636817	-1877.009863	-2985.913442	145.191488	180.000000	1087.467064	47.756890	21.450106	15.719219	14.324260	44.899141	-44.999999	-42.600672	-16.812927	1157.818688	-3894.531803	24.070407	-26.323043	1806.400676	27.994015	10.525861	-19.178039	
4.2000	-41.223864	-0.375383	-7.562995	3.017628	800.878592	5.482378	7.536419	-45.000000	44.999942	-45.000000	-25.888117	-1877.100003	-2985.927789	145.179794	180.000000	1087.403884	47.983208	21.443140	15.682439	14.347465	44.847679	-44.999998	-42.592691	-16.970056	1157.933595	-3894.521334	24.074307	-26.213133	1806.313685	27.996727	10.462830	-19.259841	
4.2100	-41.203764	-0.485244	-7.556442	2.022253	800.594942	5.175335	7.608074	-45.000000	44.999896	-45.000000	-26.139765	-1877.216977	-2985.938215	145.184364	180.000000	1087.356526	48.285835	21.451102	15.633378	14.361756	44.807964	-44.999996	-42.589894	-17.131760	1158.056586	-3894.515709	24.068769	-26.126505	1806.228872	27.945617	10.423491	-19.313709	
4.2200	-41.172640	-0.560162	-7.567657	0.756141	800.289029	4.813834	7.655582	-45.000000	44.999814	-45.000000	-26.364465	-1877.359640	-2985.952842	145.212572	180.000000	1087.318144	48.652732	21.481381	15.583430	14.373332	44.784727	-44.999992	-42.603230	-17.291641	1158.176646	-3894.504565	24.052169	-26.064908	1806.147721	27.834881	10.397144	-19.357434	
4.2300	-41.143411	-0.616826	-7.584580	-0.783759	799.956252	4.413488	7.688006	-45.000000	44.999668	-45.000000	-26.621234	-1877.510656	-2985.962487	145.257679	180.000000	1087.290420	49.051426	21.522581	15.528539	14.389331	44.792236	-44.999986	-42.640356	-17.470156	1158.294765	-3894.488873	24.022207	-26.017933	1806.077877	27.668164	10.388762	-19.377864	
4.2400	-41.118668	-0.664878	-7.595563	-2.590057	799.594175	3.992625	7.736837	-45.000000	44.999405	-45.000000	-26.941907	-1877.670880	-2985.961616	145.311908	180.000000	1087.263094	49.447634	21.574835	15.480384	14.420964	44.819160	-44.999974	-42.689924	-17.678064	1158.411237	-3894.455405	23.980873	-25.984816	1806.019164	27.456279	10.372682	-19.402271	
4.2500	-41.103381	-0.744906	-7.559414	-4.660023	799.202594	3.564485	7.809101	-45.000000	44.998933	-45.000000	-27.429837	-1877.845566	-2985.934587	145.355118	180.000000	1087.252572	49.811489	21.619740	15.422642	14.479229	44.865949	-44.999954	-42.760894	-17.977539	1158.528188	-3894.421524	23.932906	-25.979530	1805.982182	27.224039	10.375831	-19.398182	
4.2600	-41.087169	-0.856881	-7.473318	-6.993160	798.784250	3.137492	7.923909	-45.000000	44.998090	-45.000000	-28.058440	-1878.054070	-2985.893000	145.382815	180.000000	1087.243327	50.123850	21.663622	15.369520	14.565231	44.908254	-44.999917	-42.836078	-18.359811	1158.648052	-3894.389671	23.882765	-26.012058	1805.958743	26.995309	10.376062	-19.393040	
4.2700	-41.061512	-0.970546	-7.379915	-9.590834	798.343753	2.715554	8.031387	-45.000000	44.996577	-45.000000	-28.742153	-1878.277689	-2985.841902	145.413839	180.000000	1087.231091	50.375530	21.702833	15.319177	14.649986	44.942897	-44.999852	-42.896600	-18.750608	1158.783548	-3894.370052	23.823668	-26.082392	1805.951661	26.795194	10.376868	-19.375124	
